<?xml version="1.0" encoding="UTF-8" standalone="no"?>
<svg
   xmlns:dc="http://purl.org/dc/elements/1.1/"
   xmlns:cc="http://creativecommons.org/ns#"
   xmlns:rdf="http://www.w3.org/1999/02/22-rdf-syntax-ns#"
   xmlns:svg="http://www.w3.org/2000/svg"
   xmlns="http://www.w3.org/2000/svg"
   xmlns:sodipodi="http://sodipodi.sourceforge.net/DTD/sodipodi-0.dtd"
   xmlns:inkscape="http://www.inkscape.org/namespaces/inkscape"
   viewBox="0 0 448 512"
   version="1.1"
   id="svg4"
   sodipodi:docname="calendar-link.svg"
   inkscape:version="1.0 (4035a4fb49, 2020-05-01)">
  <metadata
     id="metadata10">
    <rdf:RDF>
      <cc:Work
         rdf:about="">
        <dc:format>image/svg+xml</dc:format>
        <dc:type
           rdf:resource="http://purl.org/dc/dcmitype/StillImage" />
        <dc:title />
      </cc:Work>
    </rdf:RDF>
  </metadata>
  <defs
     id="defs8" />
  <sodipodi:namedview
     inkscape:document-rotation="0"
     pagecolor="#ffffff"
     bordercolor="#666666"
     borderopacity="1"
     objecttolerance="10"
     gridtolerance="10"
     guidetolerance="10"
     inkscape:pageopacity="0"
     inkscape:pageshadow="2"
     inkscape:window-width="2112"
     inkscape:window-height="1089"
     id="namedview6"
     showgrid="false"
     inkscape:zoom="1.6015625"
     inkscape:cx="224"
     inkscape:cy="256"
     inkscape:window-x="0"
     inkscape:window-y="0"
     inkscape:window-maximized="0"
     inkscape:current-layer="svg4" />
  <!--! Font Awesome Free 6.3.0 by @fontawesome - https://fontawesome.com License - https://fontawesome.com/license/free (Icons: CC BY 4.0, Fonts: SIL OFL 1.1, Code: MIT License) Copyright 2023 Fonticons, Inc. -->
  <path
     d="M152 24c0-13.3-10.7-24-24-24s-24 10.7-24 24V64H64C28.7 64 0 92.7 0 128v16 48V448c0 35.3 28.7 64 64 64H384c35.3 0 64-28.7 64-64V192 144 128c0-35.3-28.7-64-64-64H344V24c0-13.3-10.7-24-24-24s-24 10.7-24 24V64H152V24zM48 192H400V448c0 8.8-7.2 16-16 16H64c-8.8 0-16-7.2-16-16V192z"
     id="path2" />
  <path
     id="path835"
     d="m 357.64498,333.48457 c 29.06442,-29.06443 29.06442,-76.13338 0,-105.19782 -25.72074,-25.72074 -66.25664,-29.06444 -95.83549,-7.922 l -0.82306,0.56586 c -7.40758,5.29848 -9.10515,15.58677 -3.80668,22.94291 5.29847,7.35613 15.58677,9.10514 22.94291,3.80666 l 0.82305,-0.56585 c 16.51273,-11.7801 39.09554,-9.92821 53.39627,4.42396 16.20407,16.20407 16.20407,42.43923 0,58.64329 l -57.71735,57.82023 c -16.20406,16.20406 -42.43922,16.20406 -58.64329,0 -14.35216,-14.35217 -16.20406,-36.93499 -4.42396,-53.39625 l 0.56586,-0.82307 c 5.29847,-7.40758 3.54946,-17.69587 -3.80667,-22.9429 -7.35613,-5.24703 -17.69587,-3.54946 -22.9429,3.80666 l -0.56586,0.82308 c -21.19389,29.5274 -17.85019,70.06329 7.87055,95.78403 29.06444,29.06443 76.13338,29.06443 105.19782,0 z M 90.355039,321.44727 c -29.064439,29.06443 -29.064439,76.13339 0,105.19783 25.720741,25.72074 66.256621,29.06443 95.835481,7.92199 l 0.82306,-0.56586 c 7.40757,-5.29847 9.10514,-15.58677 3.80667,-22.9429 -5.29848,-7.35613 -15.58677,-9.10515 -22.94289,-3.80667 l -0.82308,0.56585 c -16.51271,11.78011 -39.09552,9.9282 -53.39625,-4.42397 -16.204066,-16.2555 -16.204066,-42.49065 0,-58.69473 l 57.71734,-57.76877 c 16.20407,-16.20407 42.43923,-16.20407 58.64328,0 14.35217,14.35217 16.20407,36.93498 4.42397,53.44769 l -0.56585,0.82307 c -5.29848,7.40757 -3.54946,17.69586 3.80666,22.9429 7.35614,5.24703 17.69588,3.54946 22.94291,-3.80667 l 0.56586,-0.82306 c 21.19388,-29.57886 17.85018,-70.11474 -7.87056,-95.83548 -29.06443,-29.06444 -76.13338,-29.06444 -105.19782,0 z"
     style="stroke-width:0.514415" />
</svg>
