<?xml version="1.0" encoding="UTF-8" standalone="no"?>
<svg
   xmlns:dc="http://purl.org/dc/elements/1.1/"
   xmlns:cc="http://creativecommons.org/ns#"
   xmlns:rdf="http://www.w3.org/1999/02/22-rdf-syntax-ns#"
   xmlns:svg="http://www.w3.org/2000/svg"
   xmlns="http://www.w3.org/2000/svg"
   xmlns:sodipodi="http://sodipodi.sourceforge.net/DTD/sodipodi-0.dtd"
   xmlns:inkscape="http://www.inkscape.org/namespaces/inkscape"
   inkscape:version="1.0 (4035a4fb49, 2020-05-01)"
   sodipodi:docname="calendar-link.svg"
   id="svg4"
   version="1.1"
   viewBox="0 0 448 512">
  <metadata
     id="metadata10">
    <rdf:RDF>
      <cc:Work
         rdf:about="">
        <dc:format>image/svg+xml</dc:format>
        <dc:type
           rdf:resource="http://purl.org/dc/dcmitype/StillImage" />
        <dc:title></dc:title>
      </cc:Work>
    </rdf:RDF>
  </metadata>
  <defs
     id="defs8" />
  <sodipodi:namedview
     inkscape:current-layer="svg4"
     inkscape:window-maximized="0"
     inkscape:window-y="0"
     inkscape:window-x="0"
     inkscape:cy="256"
     inkscape:cx="224"
     inkscape:zoom="1.6015625"
     showgrid="false"
     id="namedview6"
     inkscape:window-height="1089"
     inkscape:window-width="2112"
     inkscape:pageshadow="2"
     inkscape:pageopacity="0"
     guidetolerance="10"
     gridtolerance="10"
     objecttolerance="10"
     borderopacity="1"
     bordercolor="#666666"
     pagecolor="#ffffff" />
  <!--! Font Awesome Free 6.3.0 by @fontawesome - https://fontawesome.com License - https://fontawesome.com/license/free (Icons: CC BY 4.0, Fonts: SIL OFL 1.1, Code: MIT License) Copyright 2023 Fonticons, Inc. -->
  <path
     id="path2"
     d="M152 24c0-13.3-10.7-24-24-24s-24 10.7-24 24V64H64C28.7 64 0 92.7 0 128v16 48V448c0 35.3 28.7 64 64 64H384c35.3 0 64-28.7 64-64V192 144 128c0-35.3-28.7-64-64-64H344V24c0-13.3-10.7-24-24-24s-24 10.7-24 24V64H152V24zM48 192H400V448c0 8.8-7.2 16-16 16H64c-8.8 0-16-7.2-16-16V192z" />
  <path
     style="stroke-width:0.555741"
     d="m 368.38157,334.24997 c 31.39937,-31.39937 31.39937,-82.24969 0,-113.64907 -27.78706,-27.78706 -71.57948,-31.39938 -103.5346,-8.55842 l -0.88918,0.61132 c -8.00268,5.72414 -9.83662,16.83896 -4.11249,24.78606 5.72413,7.9471 16.83896,9.83662 24.78606,4.11248 l 0.88918,-0.61131 c 17.8393,-12.72647 42.23634,-10.72581 57.68595,4.77937 17.50585,17.50585 17.50585,45.84865 0,63.3545 l -62.35417,62.46531 c -17.50585,17.50585 -45.84865,17.50585 -63.3545,0 -15.50517,-15.50517 -17.50585,-39.90222 -4.77937,-57.68593 l 0.61132,-0.88919 c 5.72413,-8.00268 3.83461,-19.1175 -4.11249,-24.78606 -7.9471,-5.66856 -19.1175,-3.83461 -24.78605,4.11248 l -0.61132,0.8892 c -22.89654,31.89954 -19.28422,75.69195 8.50284,103.47901 31.39938,31.39937 82.24969,31.39937 113.64907,0 z M 79.618439,321.24563 c -31.39938,31.39938 -31.39938,82.2497 0,113.64908 27.787061,27.78706 71.579461,31.39937 103.534581,8.55842 l 0.88919,-0.61132 c 8.00267,-5.72413 9.83661,-16.83896 4.11248,-24.78606 -5.72414,-7.94709 -16.83896,-9.83662 -24.78605,-4.11248 l -0.8892,0.61131 c -17.83929,12.72648 -42.23632,10.7258 -57.68593,-4.77938 -17.505841,-17.56141 -17.505841,-45.90421 0,-63.41007 l 62.35416,-62.40973 c 17.50586,-17.50585 45.84866,-17.50585 63.35449,0 15.50518,15.50518 17.50586,39.90222 4.77938,57.74151 l -0.61131,0.88919 c -5.72414,8.00267 -3.83461,19.11749 4.11248,24.78606 7.9471,5.66855 19.1175,3.83461 24.78606,-4.11249 l 0.61132,-0.88918 c 22.89653,-31.95513 19.28421,-75.74753 -8.50285,-103.53459 -31.39937,-31.39938 -82.24969,-31.39938 -113.64907,0 z"
     id="path835" />
</svg>
