<?xml version="1.0" encoding="UTF-8" standalone="no"?>
<svg
   xmlns:dc="http://purl.org/dc/elements/1.1/"
   xmlns:cc="http://creativecommons.org/ns#"
   xmlns:rdf="http://www.w3.org/1999/02/22-rdf-syntax-ns#"
   xmlns:svg="http://www.w3.org/2000/svg"
   xmlns="http://www.w3.org/2000/svg"
   xmlns:sodipodi="http://sodipodi.sourceforge.net/DTD/sodipodi-0.dtd"
   xmlns:inkscape="http://www.inkscape.org/namespaces/inkscape"
   inkscape:version="1.0 (4035a4fb49, 2020-05-01)"
   sodipodi:docname="person-military-pointing.svg"
   id="svg4"
   version="1.1"
   viewBox="0 0 512 512">
  <metadata
     id="metadata10">
    <rdf:RDF>
      <cc:Work
         rdf:about="">
        <dc:format>image/svg+xml</dc:format>
        <dc:type
           rdf:resource="http://purl.org/dc/dcmitype/StillImage" />
      </cc:Work>
    </rdf:RDF>
  </metadata>
  <defs
     id="defs8" />
  <sodipodi:namedview
     inkscape:current-layer="svg4"
     inkscape:window-maximized="0"
     inkscape:window-y="0"
     inkscape:window-x="0"
     inkscape:cy="204.24542"
     inkscape:cx="278.04472"
     inkscape:zoom="1.1324757"
     showgrid="false"
     id="namedview6"
     inkscape:window-height="1053"
     inkscape:window-width="2154"
     inkscape:pageshadow="2"
     inkscape:pageopacity="0"
     guidetolerance="10"
     gridtolerance="10"
     objecttolerance="10"
     borderopacity="1"
     bordercolor="#666666"
     pagecolor="#ffffff" />
  <!--! Font Awesome Free 6.3.0 by @fontawesome - https://fontawesome.com License - https://fontawesome.com/license/free (Icons: CC BY 4.0, Fonts: SIL OFL 1.1, Code: MIT License) Copyright 2023 Fonticons, Inc. -->
  <path
     id="path852"
     d="m 40,224 c -22.1,0 -40,17.9 -40,40 0,22.1 17.9,40 40,40 h 152 c 0.75931,58.67151 0.56877,117.33109 0,176 -0.17142,17.69917 14.3,32 32,32 h 128 c 17.7,0 32,-14.3 32,-32 V 369.69922 l 53.59961,90.60156 c 11.2,19 35.80078,25.29961 54.80078,14.09961 19,-11.2 25.29961,-35.80078 14.09961,-54.80078 L 430.30078,290.80078 C 402.65887,249.35519 365.23891,224.57649 313.19922,224 H 208 Z" />
  <ellipse
     ry="77.790604"
     rx="79.394531"
     cy="111.53125"
     cx="287.23071"
     id="path857"
     style="opacity:1;fill:#000000;stroke:#000000;stroke-width:1.21094;stroke-linecap:round;stroke-linejoin:round;stroke-opacity:0.254902;fill-opacity:1" />
</svg>
